#!OML:ASF F:\VICON\USERDATA\INSTALL\rory3\rory3.ASF
:FULLY-SPECIFIED
:DEGREES
99
root 4.62028 17.5563 2.20717 18.9443 1.77769 -1.54864
lowerback -10.2632 1.77441 14.311
upperback -13.1126 1.74261 0.1594
thorax -8.26789 -0.4011 -7.75484
lowerneck -1.68417 18.2331 10.8542
upperneck 7.06701 23.6308 4.05859
head 3.39038 12.1192 0.620098
rclavicle 5.36719e-015 1.11319e-014
rhumerus 1.78715 -25.5361 28.9119
rradius 117.386
rwrist -69.4859
rhand -2.40674 -44.1727
rfingers 7.12502
rthumb 23.2832 -72.7849
lclavicle 5.36719e-015 1.11319e-014
lhumerus 35.7199 34.443 -8.26792
lradius 28.8035
lwrist 31.6731
lhand -25.5476 -18.7564
lfingers 7.12502
lthumb 0.982643 11.2211
rfemur -4.90289 11.4947 -2.99404
rtibia 16.4017
rfoot 20.0444 -19.2932
rtoes -16.2138
lfemur -15.4729 0.691931 -28.7606
ltibia 12.4165
lfoot -13.4684 7.60063
ltoes 7.60207
100
root 4.62352 17.555 2.2014 18.9726 1.86557 -1.63145
lowerback -10.2623 1.7522 14.4081
upperback -13.076 1.70498 0.144126
thorax -8.23841 -0.425526 -7.82768
lowerneck -1.73332 18.2429 11.061
upperneck 7.16829 23.6255 4.01325
head 3.47023 12.1231 0.599958
rclavicle 3.18055e-015 -1.11319e-014
rhumerus 1.72764 -25.5764 28.7791
rradius 117.393
rwrist -69.4355
rhand -2.61335 -44.069
rfingers 7.12502
rthumb 23.085 -72.7061
lclavicle 3.18055e-015 -1.11319e-014
lhumerus 35.8 34.5502 -8.18268
lradius 28.8053
lwrist 31.5804
lhand -26.0145 -18.8377
lfingers 7.12502
lthumb 0.531751 11.1414
rfemur -4.84626 11.3594 -2.88793
rtibia 16.2864
rfoot 20.3157 -19.0379
rtoes -16.1997
lfemur -15.7063 0.604357 -28.6562
ltibia 12.7409
lfoot -13.5637 7.64906
ltoes 7.73451
101
root 4.62837 17.5561 2.19653 18.9308 2.04385 -1.72483
lowerback -10.2122 1.66425 14.5528
upperback -13.0448 1.58827 0.155661
thorax -8.26601 -0.49664 -7.90172
lowerneck -1.97619 18.3004 11.1349
upperneck 7.47741 23.6439 4.16036
head 3.61553 12.15 0.685436
rclavicle 1.37161e-014 -3.26007e-014
rhumerus 1.80781 -25.5942 28.5413
rradius 117.425
rwrist -69.3037
rhand -2.8229 -43.9374
rfingers 7.12502
rthumb 22.8839 -72.5996
lclavicle 1.37161e-014 -3.26007e-014
lhumerus 35.2065 34.0952 -8.95706
lradius 29.0875
lwrist 32.4416
lhand -25.7349 -18.714
lfingers 7.12502
lthumb 0.80178 11.2643
rfemur -4.66922 11.2187 -2.71485
rtibia 16.1765
rfoot 20.232 -19.2372
rtoes -15.0895
lfemur -15.8342 0.519941 -28.5144
ltibia 13.038
lfoot -13.7289 7.52105
ltoes 8.24039
102
root 4.6343 17.5568 2.19344 18.8405 2.19578 -1.84993
lowerback -10.2058 1.6121 14.7414
upperback -12.9539 1.50544 0.192087
thorax -8.19231 -0.542461 -7.97011
lowerneck -2.35954 18.3578 10.9678
upperneck 7.78459 23.6507 4.38959
head 3.7414 12.1689 0.832875
rclavicle -4.37326e-015 2.54444e-014
rhumerus 1.85304 -25.7176 28.419
rradius 117.454
rwrist -69.2794
rhand -2.70805 -43.9155
rfingers 7.12502
rthumb 22.9941 -72.564
lclavicle -4.37326e-015 2.54444e-014
lhumerus 34.4487 33.4992 -9.93183
lradius 29.4208
lwrist 33.4831
lhand -25.7604 -18.4145
lfingers 7.12502
lthumb 0.777131 11.5639
rfemur -4.49202 11.1126 -2.51886
rtibia 16.118
rfoot 20.0186 -19.5983
rtoes -13.6538
lfemur -15.8322 0.431685 -28.3432
ltibia 13.2483
lfoot -13.9007 7.43487
ltoes 8.78765
103
root 4.63841 17.5561 2.18649 18.7579 2.21547 -1.92936
lowerback -10.1861 1.61223 14.8025
upperback -12.8144 1.49583 0.235632
thorax -8.04383 -0.531581 -7.95638
lowerneck -2.56913 18.3434 10.9228
upperneck 7.86152 23.6104 4.29216
head 3.81483 12.1473 0.836957
rclavicle 3.81667e-014 -4.69132e-014
rhumerus 1.80131 -25.8947 28.3907
rradius 117.437
rwrist -69.2538
rhand -2.71911 -43.8805
rfingers 7.12502
rthumb 22.9835 -72.5304
lclavicle 3.81667e-014 -4.69132e-014
lhumerus 34.4189 33.6764 -9.85792
lradius 29.4118
lwrist 33.3718
lhand -26.1844 -18.2894
lfingers 7.12502
lthumb 0.367643 11.69
rfemur -4.44013 11.0817 -2.44486
rtibia 16.1053
rfoot 20.029 -19.6312
rtoes -13.4615
lfemur -15.848 0.386012 -28.2619
ltibia 13.3819
lfoot -13.8998 7.53466
ltoes 8.51973
104
root 4.6389 17.5571 2.17649 18.7285 2.04685 -1.91559
lowerback -10.1287 1.62932 14.6878
upperback -12.7075 1.52418 0.253144
thorax -7.93737 -0.49316 -7.87237
lowerneck -2.56397 18.3257 10.9863
upperneck 7.77128 23.602 4.08022
head 3.82021 12.1336 0.763399
rclavicle 7.7526e-015 -2.3059e-014
rhumerus 1.8082 -25.9847 28.2484
rradius 117.437
rwrist -69.2005
rhand -3.08542 -43.8583
rfingers 7.12502
rthumb 22.632 -72.5514
lclavicle 7.7526e-015 -2.3059e-014
lhumerus 34.9282 34.4612 -9.03388
lradius 29.1575
lwrist 32.3712
lhand -26.0876 -18.5125
lfingers 7.12502
lthumb 0.461097 11.4668
rfemur -4.59865 11.1743 -2.55891
rtibia 16.1672
rfoot 20.5966 -18.9743
rtoes -15.7664
lfemur -15.9218 0.35733 -28.3041
ltibia 13.4526
lfoot -13.8503 7.72432
ltoes 8.38068
105
root 4.64387 17.5582 2.16488 18.7858 1.92287 -1.92458
lowerback -10.0711 1.64422 14.7132
upperback -12.7389 1.55379 0.23039
thorax -8.00028 -0.488571 -7.91152
lowerneck -2.38328 18.3069 11.0784
upperneck 7.74441 23.6011 4.02452
head 3.79786 12.1325 0.716495
rclavicle -2.32578e-014 1.11319e-014
rhumerus 1.92514 -25.9094 28.0208
rradius 117.455
rwrist -69.1034
rhand -3.27306 -43.8486
rfingers 7.12502
rthumb 22.4519 -72.5636
lclavicle -2.32578e-014 1.11319e-014
lhumerus 35.2807 34.8529 -8.53718
lradius 28.9958
lwrist 31.7746
lhand -26.5416 -18.7454
lfingers 7.12502
lthumb 0.0226467 11.2344
rfemur -4.87203 11.1234 -2.67463
rtibia 16.3024
rfoot 20.8501 -18.7827
rtoes -16.6563
lfemur -16.0507 0.33823 -28.3387
ltibia 13.4791
lfoot -13.8767 7.80931
ltoes 8.42476
106
root 4.65385 17.5586 2.14992 18.8369 2.02598 -1.944
lowerback -9.95437 1.62472 14.8754
upperback -12.8484 1.5497 0.186574
thorax -8.20398 -0.528314 -8.05325
lowerneck -2.33457 18.2204 11.1116
upperneck 8.02574 23.4704 4.18183
head 3.86946 12.085 0.76407
rclavicle -2.60408e-014 2.38542e-014
rhumerus 2.05728 -25.6643 27.8133
rradius 117.406
rwrist -68.7116
rhand -3.1521 -43.638
rfingers 7.12502
rthumb 22.568 -72.3389
lclavicle -2.60408e-014 2.38542e-014
lhumerus 35.5348 34.9251 -8.25591
lradius 28.9267
lwrist 31.6493
lhand -26.7231 -18.746
lfingers 7.12502
lthumb -0.152694 11.2337
rfemur -5.0222 10.8612 -2.69176
rtibia 16.4672
rfoot 20.6773 -18.9216
rtoes -16.3954
lfemur -16.1488 0.258281 -28.3344
ltibia 13.4821
lfoot -13.8566 7.75477
ltoes 8.31217
107
root 4.65829 17.5594 2.13833 18.8354 2.08178 -1.97119
lowerback -9.84701 1.62018 14.937
upperback -12.9007 1.56489 0.173295
thorax -8.32587 -0.53873 -8.10385
lowerneck -2.57429 18.1658 10.9699
upperneck 8.48103 23.3329 4.52098
head 4.0085 12.0432 0.925976
rclavicle 1.2921e-014 -1.66979e-014
rhumerus 2.0736 -25.4392 27.7219
rradius 117.381
rwrist -68.3847
rhand -3.07685 -43.3753
rfingers 7.12502
rthumb 22.6402 -72.0674
lclavicle 1.2921e-014 -1.66979e-014
lhumerus 35.9378 35.2051 -7.73132
lradius 28.7838
lwrist 31.1776
lhand -26.1699 -18.843
lfingers 7.12502
lthumb 0.381629 11.1364
rfemur -5.14112 10.7605 -2.66505
rtibia 16.6551
rfoot 20.4462 -18.881
rtoes -16.5351
lfemur -16.168 0.236691 -28.3044
ltibia 13.4482
lfoot -13.7879 7.71591
ltoes 8.40777
108
root 4.65693 17.5609 2.13039 18.8162 2.00445 -1.94297
lowerback -9.80406 1.62052 14.799
upperback -12.8694 1.57638 0.188544
thorax -8.30368 -0.516436 -8.00999
lowerneck -2.67039 18.1501 10.8678
upperneck 8.66303 23.289 4.65358
head 4.05907 12.0307 0.995644
rclavicle 1.78906e-015 1.66979e-014
rhumerus 2.01908 -25.4082 27.7021
rradius 117.411
rwrist -68.345
rhand -3.06297 -43.1278
rfingers 7.12502
rthumb 22.6535 -71.8183
lclavicle 1.78906e-015 1.66979e-014
lhumerus 36.0494 35.3772 -7.49906
lradius 28.7476
lwrist 30.7407
lhand -26.3571 -18.8879
lfingers 7.12502
lthumb 0.200894 11.0918
rfemur -5.32353 10.8424 -2.73269
rtibia 16.8738
rfoot 20.0109 -19.1467
rtoes -15.6321
lfemur -16.151 0.328554 -28.3519
ltibia 13.3558
lfoot -13.7175 7.6996
ltoes 8.43266
109
root 4.65586 17.5595 2.12197 18.7539 1.93159 -1.75521
lowerback -9.72064 1.58539 14.5343
upperback -12.8083 1.54755 0.150133
thorax -8.27356 -0.50431 -7.9073
lowerneck -2.586 18.108 10.881
upperneck 8.61104 23.2562 4.52213
head 4.04388 12.008 0.941245
rclavicle 3.77691e-015 -8.74653e-015
rhumerus 2.04052 -25.5181 27.5847
rradius 117.393
rwrist -68.3482
rhand -2.86242 -43.1141
rfingers 7.12502
rthumb 22.846 -71.781
lclavicle 3.77691e-015 -8.74653e-015
lhumerus 35.6601 35.0872 -7.93185
lradius 28.969
lwrist 31.0091
lhand -26.7069 -18.6323
lfingers 7.12502
lthumb -0.13705 11.3474
rfemur -5.39714 10.8376 -2.97064
rtibia 17.0492
rfoot 19.9131 -19.1575
rtoes -15.4478
lfemur -16.03 0.491058 -28.6055
ltibia 13.2629
lfoot -13.6826 7.59751
ltoes 8.12577
110
root 4.65515 17.5569 2.11629 18.6714 1.81233 -1.5919
lowerback -9.61075 1.59479 14.3184
upperback -12.7593 1.5796 0.0784989
thorax -8.25948 -0.469922 -7.86691
lowerneck -2.6287 18.0622 10.8263
upperneck 8.58682 23.1972 4.48425
head 4.03918 11.9753 0.934408
rclavicle 2.22639e-014 -5.56597e-015
rhumerus 2.05789 -25.6168 27.4509
rradius 117.368
rwrist -68.4658
rhand -2.57091 -43.4591
rfingers 7.12502
rthumb 23.1257 -72.0911
lclavicle 2.22639e-014 -5.56597e-015
lhumerus 35.6119 34.932 -8.00528
lradius 29.1048
lwrist 31.1369
lhand -26.6783 -18.3915
lfingers 7.12502
lthumb -0.109411 11.5882
rfemur -5.42882 10.8395 -3.17863
rtibia 17.1451
rfoot 19.4408 -19.8426
rtoes -14.0125
lfemur -15.909 0.649423 -28.8428
ltibia 13.2362
lfoot -13.6617 7.55119
ltoes 7.92051
111
root 4.65884 17.5584 2.11391 18.5841 1.75909 -1.69863
lowerback -9.54822 1.66245 14.4038
upperback -12.7294 1.67392 0.0641663
thorax -8.23914 -0.427873 -7.92819
lowerneck -2.47883 18.003 10.7643
upperneck 8.47557 23.141 4.54298
head 3.9519 11.9445 0.927285
rclavicle 8.74653e-015 5.56597e-015
rhumerus 2.0168 -25.601 27.3873
rradius 117.395
rwrist -68.7449
rhand -2.6134 -43.788
rfingers 7.12502
rthumb 23.0849 -72.4251
lclavicle 8.74653e-015 5.56597e-015
lhumerus 35.99 35.0232 -7.61929
lradius 29.0507
lwrist 30.9592
lhand -26.7928 -18.294
lfingers 7.12502
lthumb -0.219934 11.6857
rfemur -5.46542 10.8642 -3.07121
rtibia 17.2155
rfoot 19.5082 -19.9356
rtoes -14.4249
lfemur -15.8923 0.574869 -28.7248
ltibia 13.2746
lfoot -13.6252 7.67277
ltoes 8.17855
